<svg xmlns="http://www.w3.org/2000/svg" viewBox="0 0 1600 560" width="1600" height="560" role="img"><defs>
    <linearGradient id="sky" x1="0" y1="0" x2="0.1" y2="1">
      <stop offset="0" stop-color="#2a2318"/>
      <stop offset="0.45" stop-color="#6d5027"/>
      <stop offset="1" stop-color="#d9a955"/>
    </linearGradient>
    <radialGradient id="sunGlow" cx="0.26" cy="0.22" r="0.7">
      <stop offset="0" stop-color="#ffdb95" stop-opacity="0.92"/>
      <stop offset="0.3" stop-color="#ffdb95" stop-opacity="0.42"/>
      <stop offset="0.7" stop-color="#ffdb95" stop-opacity="0.1"/>
      <stop offset="1" stop-color="#ffdb95" stop-opacity="0"/>
    </radialGradient>
    <radialGradient id="glow" cx="0.5" cy="0.5" r="0.5">
      <stop offset="0" stop-color="#ffdb95" stop-opacity="0.85"/>
      <stop offset="1" stop-color="#ffdb95" stop-opacity="0"/>
    </radialGradient>
    <linearGradient id="shaft" x1="0" y1="0" x2="0" y2="1">
      <stop offset="0" stop-color="#ffdb95" stop-opacity="0.55"/>
      <stop offset="1" stop-color="#ffdb95" stop-opacity="0"/>
    </linearGradient>
    <linearGradient id="floor" x1="0" y1="0" x2="0" y2="1">
      <stop offset="0" stop-color="#413221"/>
      <stop offset="1" stop-color="#241b11"/>
    </linearGradient>
    <radialGradient id="vignette" cx="0.5" cy="0.42" r="0.8">
      <stop offset="0.5" stop-color="#000000" stop-opacity="0"/>
      <stop offset="1" stop-color="#12160a" stop-opacity="0.5"/>
    </radialGradient>
    <filter id="grain" x="0" y="0" width="100%" height="100%">
      <feTurbulence type="fractalNoise" baseFrequency="0.85" numOctaves="2" seed="11" result="noise"/>
      <feColorMatrix in="noise" type="saturate" values="0"/>
    </filter>
    <filter id="soften" x="-15%" y="-15%" width="130%" height="130%">
      <feGaussianBlur stdDeviation="9"/>
    </filter>
    <filter id="softenSm" x="-15%" y="-15%" width="130%" height="130%">
      <feGaussianBlur stdDeviation="3"/>
    </filter>
  </defs><rect width="1600" height="560" fill="#241d12"/><ellipse cx="682.4" cy="201.6" rx="317.5" ry="305.8" fill="#ffdb95" opacity=".1" filter="url(#soften)"/><rect x="564.8" y="84" width="235.2" height="235.2" rx="4" fill="#b3ac6d"/><rect x="564.8" y="229.8" width="235.2" height="89.4" fill="#505635"/><circle cx="720" cy="182.8" r="32.9" fill="#ffdb95" filter="url(#softenSm)" opacity=".85"/><rect x="679.4" y="84" width="6" height="235.2" fill="#241d14"/><rect x="564.8" y="198.6" width="235.2" height="6" fill="#241d14"/><rect x="555.8" y="75" width="253.2" height="253.2" rx="6" fill="none" stroke="#241d14" stroke-width="11"/><path d="M 564.8 319.2 L 800 319.2 L 1147.2 560 L 396.8 560 Z" fill="#ffdb95" opacity=".12"/><rect x="0" y="369.6" width="1600" height="190.4" fill="#4f3821"/><rect x="0" y="369.6" width="1600" height="7" fill="#7a5f33" opacity=".55"/><path d="M 1451.3 490.1 h 253.8" stroke="#7a5f33" stroke-width="1" opacity=".18"/><path d="M 1023 568.4 h 328" stroke="#7a5f33" stroke-width="1" opacity=".1"/><path d="M 801.6 435.1 h 253.8" stroke="#7a5f33" stroke-width="1" opacity=".19"/><path d="M 648.8 403 h 249.2" stroke="#7a5f33" stroke-width="1" opacity=".2"/><path d="M 114.8 509.6 h 337.2" stroke="#7a5f33" stroke-width="1" opacity=".1"/><path d="M 158.5 445.3 h 503" stroke="#7a5f33" stroke-width="1" opacity=".1"/><path d="M 490.4 519.7 h 349" stroke="#7a5f33" stroke-width="1" opacity=".14"/><path d="M 178 517 h 645" stroke="#7a5f33" stroke-width="1" opacity=".08"/><path d="M 1454.3 518.6 h 538.3" stroke="#7a5f33" stroke-width="1" opacity=".16"/><path d="M 1066.2 410.6 h 384.5" stroke="#7a5f33" stroke-width="1" opacity=".13"/><path d="M 1125.8 562.9 h 317.1" stroke="#7a5f33" stroke-width="1" opacity=".07"/><path d="M 1315.7 546 h 551.5" stroke="#7a5f33" stroke-width="1" opacity=".14"/><path d="M 399.7 422.1 h 374.9" stroke="#7a5f33" stroke-width="1" opacity=".18"/><path d="M 1519.8 541.9 h 379.4" stroke="#7a5f33" stroke-width="1" opacity=".18"/><path d="M 664.4 477.3 h 176.5" stroke="#7a5f33" stroke-width="1" opacity=".12"/><path d="M 897.8 507.5 h 533.2" stroke="#7a5f33" stroke-width="1" opacity=".08"/><g transform="rotate(-4 800 456.4)">
    <rect x="654.4" y="397.6" width="268.8" height="117.6" rx="3" fill="#f2e9d2"/>
    <rect x="654.4" y="397.6" width="134.4" height="117.6" rx="3" fill="#e3d7b8"/>
    <line x1="788.8" y1="397.6" x2="788.8" y2="515.2" stroke="#241d14" stroke-width="1.4" opacity=".45"/><line x1="804.9" y1="414.4" x2="877.9" y2="414.4" stroke="#241d14" stroke-width="1.5" opacity=".37" stroke-linecap="round"/><line x1="804.9" y1="426.2" x2="835.9" y2="426.2" stroke="#241d14" stroke-width="1.5" opacity=".31" stroke-linecap="round"/><line x1="804.9" y1="437.9" x2="820.8" y2="437.9" stroke="#241d14" stroke-width="1.5" opacity=".3" stroke-linecap="round"/><line x1="804.9" y1="449.7" x2="832.9" y2="449.7" stroke="#241d14" stroke-width="1.5" opacity=".42" stroke-linecap="round"/><line x1="804.9" y1="461.4" x2="895" y2="461.4" stroke="#241d14" stroke-width="1.5" opacity=".38" stroke-linecap="round"/><line x1="804.9" y1="473.2" x2="839" y2="473.2" stroke="#241d14" stroke-width="1.5" opacity=".58" stroke-linecap="round"/><line x1="804.9" y1="485" x2="882.2" y2="485" stroke="#241d14" stroke-width="1.5" opacity=".52" stroke-linecap="round"/><line x1="804.9" y1="496.7" x2="854.8" y2="496.7" stroke="#241d14" stroke-width="1.5" opacity=".36" stroke-linecap="round"/></g><path d="M 697.4 532.8 l 89.6 -16.8" stroke="#362719" stroke-width="5" stroke-linecap="round"/><path d="M 960.2 423.4 h 38.1 v 21.9 a 19 19 0 0 1 -38.1 0 Z" fill="#ddd0b4"/><path d="M 998.2 429.8 a 10.5 10.5 0 0 1 0 20.9" fill="none" stroke="#ddd0b4" stroke-width="4.2"/><ellipse cx="979.2" cy="423.4" rx="19" ry="5" fill="#412b17"/><path d="M 971.6 416.7 q 5 -10.5 0 -19" stroke="#ffe3a8" stroke-width="2" fill="none" opacity=".22"/><path d="M 979.2 416.7 q 5 -10.5 0 -19" stroke="#ffe3a8" stroke-width="2" fill="none" opacity=".22"/><path d="M 986.8 416.7 q 5 -10.5 0 -19" stroke="#ffe3a8" stroke-width="2" fill="none" opacity=".22"/><path d="M 757.7 290.1 Q 757.3 267 757.7 248.1" stroke="#4e3d23" stroke-width="3" stroke-linecap="round" fill="none"/><path d="M 757.7 248.1 Q 748.8 235 739 226.3" stroke="#564426" stroke-width="1.9" stroke-linecap="round" fill="none"/><path d="M 739 226.3 Q 727.8 223.7 719.1 220.4" stroke="#4c3c23" stroke-width="1.2" stroke-linecap="round" fill="none"/><g transform="scale(1 .84)"><circle cx="714.3" cy="259.4" r="5.1" fill="#43391c" opacity=".97"/><circle cx="715.6" cy="262.5" r="3.2" fill="#43391c" opacity=".86"/><circle cx="717.9" cy="260.4" r="4.3" fill="#43391c" opacity=".95"/><circle cx="715.7" cy="256.9" r="3.2" fill="#63512a" opacity=".86"/><circle cx="720.5" cy="262.4" r="3" fill="#63512a" opacity=".72"/><circle cx="725.1" cy="261" r="2.9" fill="#63512a" opacity=".72"/><circle cx="725" cy="262.9" r="3.3" fill="#63512a" opacity=".89"/><circle cx="716.3" cy="256" r="2.6" fill="#8a7040" opacity=".64"/><circle cx="717.9" cy="264.4" r="2.8" fill="#8a7040" opacity=".88"/><circle cx="714.7" cy="265.1" r="1.9" fill="#8a7040" opacity=".78"/><circle cx="715" cy="257.9" r="1.7" fill="#8a7040" opacity=".74"/><circle cx="718.8" cy="259.2" r="1.8" fill="#b39159" opacity=".75"/><circle cx="720.9" cy="258.9" r="1.5" fill="#b39159" opacity=".68"/><circle cx="715.4" cy="258.3" r="1.1" fill="#b39159" opacity=".8"/><circle cx="723.6" cy="261.5" r="1" fill="#dcb87f" opacity=".51"/><circle cx="721.5" cy="260.9" r="0.8" fill="#dcb87f" opacity=".53"/><circle cx="717.6" cy="262.7" r="2.1" fill="#2c2614" opacity=".52"/></g><path d="M 739 226.3 Q 739.7 213.8 742.2 203.7" stroke="#4e3d23" stroke-width="1.2" stroke-linecap="round" fill="none"/><g transform="scale(1 .84)"><circle cx="742.1" cy="245.7" r="5.6" fill="#43391c" opacity=".95"/><circle cx="746.5" cy="241.8" r="4.7" fill="#43391c" opacity=".91"/><circle cx="743.2" cy="244.2" r="5.3" fill="#43391c" opacity=".99"/><circle cx="745.6" cy="246.2" r="3.3" fill="#63512a" opacity=".81"/><circle cx="741" cy="235.9" r="2.8" fill="#63512a" opacity=".72"/><circle cx="748.8" cy="237.8" r="3.1" fill="#63512a" opacity=".83"/><circle cx="744.3" cy="246.4" r="3.5" fill="#63512a" opacity=".76"/><circle cx="740.2" cy="240.7" r="1.9" fill="#8a7040" opacity=".64"/><circle cx="739.2" cy="246.7" r="2.6" fill="#8a7040" opacity=".65"/><circle cx="748.4" cy="244.7" r="2.7" fill="#8a7040" opacity=".87"/><circle cx="743" cy="247" r="2.2" fill="#8a7040" opacity=".82"/><circle cx="740.5" cy="243.2" r="2" fill="#b39159" opacity=".56"/><circle cx="742" cy="245.4" r="1.6" fill="#b39159" opacity=".57"/><circle cx="744.6" cy="244.1" r="1.6" fill="#b39159" opacity=".57"/><circle cx="741.6" cy="235.5" r="1" fill="#dcb87f" opacity=".78"/><circle cx="741" cy="238.1" r="0.9" fill="#dcb87f" opacity=".73"/><circle cx="739.5" cy="250.7" r="2.7" fill="#2c2614" opacity=".52"/></g><path d="M 757.7 248.1 Q 764.8 234.2 776.4 226.8" stroke="#453620" stroke-width="1.9" stroke-linecap="round" fill="none"/><path d="M 776.4 226.8 Q 778.2 216.3 782.1 208.2" stroke="#544225" stroke-width="1.2" stroke-linecap="round" fill="none"/><g transform="scale(1 .84)"><circle cx="785.6" cy="244" r="5.8" fill="#43391c" opacity=".89"/><circle cx="788.1" cy="249.9" r="6" fill="#43391c" opacity=".88"/><circle cx="787.2" cy="251.3" r="5.2" fill="#43391c" opacity=".85"/><circle cx="786.1" cy="253.1" r="2.7" fill="#63512a" opacity=".89"/><circle cx="782.7" cy="241.5" r="4.2" fill="#63512a" opacity=".75"/><circle cx="782.6" cy="240" r="3.3" fill="#63512a" opacity=".83"/><circle cx="785.3" cy="252.5" r="4" fill="#63512a" opacity=".95"/><circle cx="786.6" cy="244.4" r="2" fill="#8a7040" opacity=".66"/><circle cx="783.3" cy="252.6" r="2.1" fill="#8a7040" opacity=".74"/><circle cx="787.3" cy="249.3" r="2.1" fill="#8a7040" opacity=".68"/><circle cx="788.1" cy="248.2" r="2.9" fill="#8a7040" opacity=".74"/><circle cx="785.6" cy="242.4" r="1.8" fill="#b39159" opacity=".82"/><circle cx="789.3" cy="246.9" r="1.2" fill="#b39159" opacity=".71"/><circle cx="789" cy="243.2" r="1.6" fill="#b39159" opacity=".79"/><circle cx="781.2" cy="242.5" r="1" fill="#dcb87f" opacity=".55"/><circle cx="780.5" cy="245.7" r="0.8" fill="#dcb87f" opacity=".45"/><circle cx="782.5" cy="251.6" r="3.2" fill="#2c2614" opacity=".44"/></g><path d="M 776.4 226.8 Q 788.3 224.9 798.3 225.7" stroke="#503f24" stroke-width="1.2" stroke-linecap="round" fill="none"/><g transform="scale(1 .84)"><circle cx="803.5" cy="269.8" r="4.3" fill="#43391c" opacity=".98"/><circle cx="793.4" cy="272.5" r="4.1" fill="#43391c" opacity=".9"/><circle cx="794.6" cy="267.7" r="4.4" fill="#43391c" opacity=".95"/><circle cx="801.4" cy="269.5" r="2.7" fill="#63512a" opacity=".95"/><circle cx="797.9" cy="268.3" r="2.4" fill="#63512a" opacity=".83"/><circle cx="798.6" cy="268" r="3.9" fill="#63512a" opacity=".77"/><circle cx="796.3" cy="263.6" r="3.1" fill="#63512a" opacity=".85"/><circle cx="798.1" cy="271" r="3.1" fill="#8a7040" opacity=".83"/><circle cx="796.4" cy="271.7" r="3" fill="#8a7040" opacity=".72"/><circle cx="802.2" cy="267.3" r="1.8" fill="#8a7040" opacity=".75"/><circle cx="798.8" cy="262.8" r="2" fill="#8a7040" opacity=".82"/><circle cx="803.2" cy="265.4" r="1.2" fill="#b39159" opacity=".56"/><circle cx="800.2" cy="260.7" r="1.8" fill="#b39159" opacity=".79"/><circle cx="804.7" cy="263.9" r="1.6" fill="#b39159" opacity=".68"/><circle cx="802" cy="262.8" r="0.9" fill="#dcb87f" opacity=".48"/><circle cx="798.4" cy="262.6" r="1.1" fill="#dcb87f" opacity=".57"/><circle cx="793.7" cy="276.1" r="2.8" fill="#2c2614" opacity=".42"/></g><path d="M 746.5 290.1 h 22.4 v 23.5 a 4.5 4.5 0 0 1 -4.5 4.5 h -13.4 a 4.5 4.5 0 0 1 -4.5 -4.5 Z" fill="#ffe3a8" opacity=".38"/><g style="mix-blend-mode:screen"><circle cx="117" cy="409.7" r="6.1" fill="url(#glow)" opacity=".18"/><circle cx="1146.8" cy="484.7" r="8" fill="url(#glow)" opacity=".16"/><circle cx="853.2" cy="445.4" r="2.2" fill="url(#glow)" opacity=".23"/><circle cx="866.8" cy="292.5" r="7.1" fill="url(#glow)" opacity=".17"/><circle cx="1258" cy="424.9" r="8.6" fill="url(#glow)" opacity=".41"/><circle cx="97.7" cy="245.7" r="4.1" fill="url(#glow)" opacity=".29"/><circle cx="939.5" cy="437" r="8.7" fill="url(#glow)" opacity=".2"/><circle cx="217.9" cy="514.8" r="5" fill="url(#glow)" opacity=".39"/><circle cx="876.5" cy="215.6" r="3.4" fill="url(#glow)" opacity=".39"/><circle cx="51.6" cy="460" r="4.8" fill="url(#glow)" opacity=".45"/></g><rect width="1600" height="560" fill="url(#vignette)"/><rect width="1600" height="560" filter="url(#grain)" opacity=".09" style="mix-blend-mode:overlay"/></svg>
