<svg xmlns="http://www.w3.org/2000/svg" viewBox="0 0 800 800" width="800" height="800" role="img"><defs>
    <linearGradient id="sky" x1="0" y1="0" x2="0.1" y2="1">
      <stop offset="0" stop-color="#2a2318"/>
      <stop offset="0.45" stop-color="#6d5027"/>
      <stop offset="1" stop-color="#d9a955"/>
    </linearGradient>
    <radialGradient id="sunGlow" cx="0.26" cy="0.22" r="0.7">
      <stop offset="0" stop-color="#ffdb95" stop-opacity="0.92"/>
      <stop offset="0.3" stop-color="#ffdb95" stop-opacity="0.42"/>
      <stop offset="0.7" stop-color="#ffdb95" stop-opacity="0.1"/>
      <stop offset="1" stop-color="#ffdb95" stop-opacity="0"/>
    </radialGradient>
    <radialGradient id="glow" cx="0.5" cy="0.5" r="0.5">
      <stop offset="0" stop-color="#ffdb95" stop-opacity="0.85"/>
      <stop offset="1" stop-color="#ffdb95" stop-opacity="0"/>
    </radialGradient>
    <linearGradient id="shaft" x1="0" y1="0" x2="0" y2="1">
      <stop offset="0" stop-color="#ffdb95" stop-opacity="0.55"/>
      <stop offset="1" stop-color="#ffdb95" stop-opacity="0"/>
    </linearGradient>
    <linearGradient id="floor" x1="0" y1="0" x2="0" y2="1">
      <stop offset="0" stop-color="#413221"/>
      <stop offset="1" stop-color="#241b11"/>
    </linearGradient>
    <radialGradient id="vignette" cx="0.5" cy="0.42" r="0.8">
      <stop offset="0.5" stop-color="#000000" stop-opacity="0"/>
      <stop offset="1" stop-color="#12160a" stop-opacity="0.5"/>
    </radialGradient>
    <filter id="grain" x="0" y="0" width="100%" height="100%">
      <feTurbulence type="fractalNoise" baseFrequency="0.85" numOctaves="2" seed="11" result="noise"/>
      <feColorMatrix in="noise" type="saturate" values="0"/>
    </filter>
    <filter id="soften" x="-15%" y="-15%" width="130%" height="130%">
      <feGaussianBlur stdDeviation="9"/>
    </filter>
    <filter id="softenSm" x="-15%" y="-15%" width="130%" height="130%">
      <feGaussianBlur stdDeviation="3"/>
    </filter>
  </defs><rect width="800" height="800" fill="#241d12"/><ellipse cx="232" cy="288" rx="453.6" ry="436.8" fill="#ffdb95" opacity=".1" filter="url(#soften)"/><rect x="64" y="120" width="336" height="336" rx="4" fill="#b3ac6d"/><rect x="64" y="328.3" width="336" height="127.7" fill="#505635"/><circle cx="285.8" cy="261.1" r="47" fill="#ffdb95" filter="url(#softenSm)" opacity=".85"/><rect x="229" y="120" width="6" height="336" fill="#241d14"/><rect x="64" y="285" width="336" height="6" fill="#241d14"/><rect x="55" y="111" width="354" height="354" rx="6" fill="none" stroke="#241d14" stroke-width="11"/><path d="M 64 456 L 400 456 L 896 800 L -176 800 Z" fill="#ffdb95" opacity=".12"/><rect x="0" y="528" width="800" height="272" fill="#4f3821"/><rect x="0" y="528" width="800" height="7" fill="#7a5f33" opacity=".55"/><path d="M 404.7 716.5 h 297.8" stroke="#7a5f33" stroke-width="1" opacity=".16"/><path d="M 752.1 715.4 h 800.3" stroke="#7a5f33" stroke-width="1" opacity=".07"/><path d="M 127.1 553.5 h 647.4" stroke="#7a5f33" stroke-width="1" opacity=".15"/><path d="M 787.1 590 h 811.9" stroke="#7a5f33" stroke-width="1" opacity=".14"/><path d="M 539.2 777.5 h 880.3" stroke="#7a5f33" stroke-width="1" opacity=".19"/><path d="M 429.1 788.1 h 899.2" stroke="#7a5f33" stroke-width="1" opacity=".14"/><path d="M 67.8 761.3 h 818.1" stroke="#7a5f33" stroke-width="1" opacity=".17"/><path d="M 582.6 779.6 h 748.3" stroke="#7a5f33" stroke-width="1" opacity=".16"/><path d="M 94.5 627.3 h 453.6" stroke="#7a5f33" stroke-width="1" opacity=".16"/><path d="M 241.6 783 h 493" stroke="#7a5f33" stroke-width="1" opacity=".12"/><path d="M 519.9 666.2 h 443.1" stroke="#7a5f33" stroke-width="1" opacity=".14"/><path d="M 94.7 748.3 h 791.1" stroke="#7a5f33" stroke-width="1" opacity=".19"/><path d="M 590.7 784.1 h 741" stroke="#7a5f33" stroke-width="1" opacity=".07"/><path d="M 32.3 807.5 h 362.5" stroke="#7a5f33" stroke-width="1" opacity=".1"/><path d="M 716.7 697.4 h 933.6" stroke="#7a5f33" stroke-width="1" opacity=".14"/><path d="M 649.8 756.5 h 514.5" stroke="#7a5f33" stroke-width="1" opacity=".11"/><g transform="rotate(-4 400 652)">
    <rect x="192" y="568" width="384" height="168" rx="3" fill="#f2e9d2"/>
    <rect x="192" y="568" width="192" height="168" rx="3" fill="#e3d7b8"/>
    <line x1="384" y1="568" x2="384" y2="736" stroke="#241d14" stroke-width="1.4" opacity=".45"/><line x1="407" y1="592" x2="483.5" y2="592" stroke="#241d14" stroke-width="1.5" opacity=".41" stroke-linecap="round"/><line x1="407" y1="608.8" x2="463.5" y2="608.8" stroke="#241d14" stroke-width="1.5" opacity=".35" stroke-linecap="round"/><line x1="407" y1="625.6" x2="490.9" y2="625.6" stroke="#241d14" stroke-width="1.5" opacity=".33" stroke-linecap="round"/><line x1="407" y1="642.4" x2="456" y2="642.4" stroke="#241d14" stroke-width="1.5" opacity=".51" stroke-linecap="round"/><line x1="407" y1="659.2" x2="433.5" y2="659.2" stroke="#241d14" stroke-width="1.5" opacity=".46" stroke-linecap="round"/><line x1="407" y1="676" x2="439.1" y2="676" stroke="#241d14" stroke-width="1.5" opacity=".31" stroke-linecap="round"/><line x1="407" y1="692.8" x2="512.2" y2="692.8" stroke="#241d14" stroke-width="1.5" opacity=".43" stroke-linecap="round"/><line x1="407" y1="709.6" x2="473.9" y2="709.6" stroke="#241d14" stroke-width="1.5" opacity=".54" stroke-linecap="round"/></g><path d="M 253.4 761.2 l 128 -24" stroke="#362719" stroke-width="5" stroke-linecap="round"/><path d="M 628.8 604.8 h 54.4 v 31.3 a 27.2 27.2 0 0 1 -54.4 0 Z" fill="#ddd0b4"/><path d="M 683.2 614 a 15 15 0 0 1 0 29.9" fill="none" stroke="#ddd0b4" stroke-width="6"/><ellipse cx="656" cy="604.8" rx="27.2" ry="7.1" fill="#412b17"/><path d="M 645.1 595.3 q 7.1 -15 0 -27.2" stroke="#ffe3a8" stroke-width="2" fill="none" opacity=".22"/><path d="M 656 595.3 q 7.1 -15 0 -27.2" stroke="#ffe3a8" stroke-width="2" fill="none" opacity=".22"/><path d="M 666.9 595.3 q 7.1 -15 0 -27.2" stroke="#ffe3a8" stroke-width="2" fill="none" opacity=".22"/><path d="M 339.5 414.4 Q 337.7 381.4 339.5 354.4" stroke="#392d1c" stroke-width="3" stroke-linecap="round" fill="none"/><path d="M 339.5 354.4 Q 328.3 332.3 318.7 314.4" stroke="#483921" stroke-width="1.9" stroke-linecap="round" fill="none"/><path d="M 318.7 314.4 Q 303.1 301.5 285.9 297.5" stroke="#4c3c23" stroke-width="1.2" stroke-linecap="round" fill="none"/><g transform="scale(1 .84)"><circle cx="280.6" cy="356.7" r="4.2" fill="#43391c" opacity=".92"/><circle cx="290" cy="359" r="4.1" fill="#43391c" opacity=".88"/><circle cx="279.6" cy="355.1" r="4.8" fill="#43391c" opacity=".91"/><circle cx="288.5" cy="362.1" r="4" fill="#63512a" opacity=".73"/><circle cx="282" cy="351.1" r="3.7" fill="#63512a" opacity=".89"/><circle cx="287.7" cy="350.4" r="3.5" fill="#63512a" opacity=".93"/><circle cx="279.3" cy="349" r="3.6" fill="#63512a" opacity=".7"/><circle cx="288.5" cy="345.4" r="3.5" fill="#8a7040" opacity=".79"/><circle cx="286.7" cy="345.5" r="3.3" fill="#8a7040" opacity=".69"/><circle cx="281.9" cy="353.6" r="3.4" fill="#8a7040" opacity=".87"/><circle cx="286.2" cy="345.1" r="3.5" fill="#8a7040" opacity=".62"/><circle cx="286" cy="355.5" r="1.5" fill="#b39159" opacity=".51"/><circle cx="283.7" cy="348.6" r="2.1" fill="#b39159" opacity=".56"/><circle cx="282.2" cy="346.5" r="1.9" fill="#b39159" opacity=".79"/><circle cx="290.7" cy="352.1" r="1.1" fill="#dcb87f" opacity=".71"/><circle cx="289.2" cy="344.8" r="1.1" fill="#dcb87f" opacity=".5"/><circle cx="286.5" cy="362.2" r="3.9" fill="#2c2614" opacity=".47"/></g><path d="M 318.7 314.4 Q 315.7 298.8 320.4 285.6" stroke="#574426" stroke-width="1.2" stroke-linecap="round" fill="none"/><g transform="scale(1 .84)"><circle cx="326.7" cy="340" r="4.8" fill="#43391c" opacity=".93"/><circle cx="320.1" cy="345.8" r="4.1" fill="#43391c" opacity=".85"/><circle cx="320.4" cy="343.7" r="5.3" fill="#43391c" opacity=".92"/><circle cx="316.7" cy="344.5" r="3.8" fill="#63512a" opacity=".84"/><circle cx="316.6" cy="334.2" r="4.3" fill="#63512a" opacity=".74"/><circle cx="321.1" cy="335.8" r="3" fill="#63512a" opacity=".81"/><circle cx="322.2" cy="336.2" r="3.1" fill="#63512a" opacity=".79"/><circle cx="318.9" cy="340.9" r="2.3" fill="#8a7040" opacity=".82"/><circle cx="325.9" cy="340.8" r="3.1" fill="#8a7040" opacity=".81"/><circle cx="315.9" cy="332.5" r="2.3" fill="#8a7040" opacity=".89"/><circle cx="328" cy="336.9" r="2.3" fill="#8a7040" opacity=".67"/><circle cx="325.5" cy="336.6" r="2" fill="#b39159" opacity=".82"/><circle cx="323" cy="340.8" r="1.6" fill="#b39159" opacity=".79"/><circle cx="319.8" cy="331.2" r="2.1" fill="#b39159" opacity=".54"/><circle cx="316.8" cy="333.6" r="1.1" fill="#dcb87f" opacity=".48"/><circle cx="320.6" cy="336.7" r="1" fill="#dcb87f" opacity=".62"/><circle cx="324.6" cy="341.7" r="2.6" fill="#2c2614" opacity=".46"/></g><path d="M 318.7 314.4 Q 305.8 301.1 298.3 287.5" stroke="#4a3a22" stroke-width="1.2" stroke-linecap="round" fill="none"/><g transform="scale(1 .84)"><circle cx="293.5" cy="342.1" r="5.6" fill="#43391c" opacity=".98"/><circle cx="299.8" cy="339.9" r="6.3" fill="#43391c" opacity=".88"/><circle cx="295.2" cy="339.4" r="5.6" fill="#43391c" opacity=".97"/><circle cx="297.3" cy="349.4" r="4.6" fill="#63512a" opacity=".79"/><circle cx="295.7" cy="336.8" r="4.3" fill="#63512a" opacity=".92"/><circle cx="303.6" cy="342.3" r="2.5" fill="#63512a" opacity=".78"/><circle cx="296.7" cy="340.1" r="2.6" fill="#63512a" opacity=".84"/><circle cx="292.1" cy="337.4" r="3" fill="#8a7040" opacity=".7"/><circle cx="291.6" cy="343.1" r="1.9" fill="#8a7040" opacity=".71"/><circle cx="305.4" cy="339.8" r="2.4" fill="#8a7040" opacity=".75"/><circle cx="298" cy="343.1" r="1.8" fill="#8a7040" opacity=".65"/><circle cx="304.7" cy="342.8" r="1.2" fill="#b39159" opacity=".62"/><circle cx="301.4" cy="344.9" r="1.2" fill="#b39159" opacity=".62"/><circle cx="293.3" cy="341.9" r="1.6" fill="#b39159" opacity=".53"/><circle cx="300.8" cy="333.6" r="0.9" fill="#dcb87f" opacity=".53"/><circle cx="301.8" cy="339.8" r="0.7" fill="#dcb87f" opacity=".62"/><circle cx="300.1" cy="347.2" r="2.7" fill="#2c2614" opacity=".34"/></g><path d="M 339.5 354.4 Q 349 335.8 358.4 321.5" stroke="#443620" stroke-width="1.9" stroke-linecap="round" fill="none"/><path d="M 358.4 321.5 Q 357.1 306.2 356.2 293.6" stroke="#4c3c23" stroke-width="1.2" stroke-linecap="round" fill="none"/><g transform="scale(1 .84)"><circle cx="359.3" cy="355.8" r="4.3" fill="#43391c" opacity=".88"/><circle cx="361.7" cy="349.6" r="4.3" fill="#43391c" opacity=".88"/><circle cx="350.1" cy="352.1" r="5.7" fill="#43391c" opacity=".88"/><circle cx="363.9" cy="352.2" r="4.6" fill="#63512a" opacity=".79"/><circle cx="352.2" cy="353.4" r="4" fill="#63512a" opacity=".85"/><circle cx="348.8" cy="348.1" r="5" fill="#63512a" opacity=".89"/><circle cx="352.7" cy="343" r="4" fill="#63512a" opacity=".81"/><circle cx="352.5" cy="343.4" r="3.4" fill="#8a7040" opacity=".62"/><circle cx="352.9" cy="350.7" r="2.5" fill="#8a7040" opacity=".71"/><circle cx="357.8" cy="349.6" r="2.4" fill="#8a7040" opacity=".81"/><circle cx="361.6" cy="351.3" r="3.7" fill="#8a7040" opacity=".62"/><circle cx="355.2" cy="340.1" r="1.7" fill="#b39159" opacity=".57"/><circle cx="356.9" cy="347.6" r="2.5" fill="#b39159" opacity=".82"/><circle cx="357.3" cy="351.8" r="1.8" fill="#b39159" opacity=".64"/><circle cx="363.5" cy="342.3" r="0.9" fill="#dcb87f" opacity=".41"/><circle cx="357.6" cy="339.3" r="0.8" fill="#dcb87f" opacity=".72"/><circle cx="352.1" cy="349.1" r="2.6" fill="#2c2614" opacity=".42"/></g><path d="M 358.4 321.5 Q 368.1 311.6 378.2 305.9" stroke="#5f4a29" stroke-width="1.2" stroke-linecap="round" fill="none"/><g transform="scale(1 .84)"><circle cx="377.5" cy="362.1" r="4.2" fill="#43391c" opacity="1"/><circle cx="379" cy="364.8" r="3.9" fill="#43391c" opacity="1"/><circle cx="383.3" cy="367.9" r="5" fill="#43391c" opacity=".94"/><circle cx="381.5" cy="359.9" r="3.2" fill="#63512a" opacity=".82"/><circle cx="379.9" cy="359.4" r="2.4" fill="#63512a" opacity=".84"/><circle cx="375.1" cy="367.8" r="3" fill="#63512a" opacity=".91"/><circle cx="377.4" cy="361.3" r="3.8" fill="#63512a" opacity=".9"/><circle cx="382.1" cy="366.2" r="2.7" fill="#8a7040" opacity=".63"/><circle cx="379.7" cy="367.8" r="2.4" fill="#8a7040" opacity=".64"/><circle cx="373.6" cy="364.2" r="2.2" fill="#8a7040" opacity=".75"/><circle cx="371.6" cy="364.6" r="2.5" fill="#8a7040" opacity=".72"/><circle cx="383.4" cy="364.8" r="1.8" fill="#b39159" opacity=".6"/><circle cx="379.5" cy="360.7" r="1.4" fill="#b39159" opacity=".8"/><circle cx="384.7" cy="359.8" r="1.7" fill="#b39159" opacity=".66"/><circle cx="383.4" cy="357.9" r="0.9" fill="#dcb87f" opacity=".44"/><circle cx="379.8" cy="362.7" r="0.8" fill="#dcb87f" opacity=".8"/><circle cx="372.5" cy="369.4" r="3.1" fill="#2c2614" opacity=".54"/></g><path d="M 358.4 321.5 Q 365.1 309.7 368.1 298.9" stroke="#493a21" stroke-width="1.2" stroke-linecap="round" fill="none"/><g transform="scale(1 .84)"><circle cx="362.9" cy="357.1" r="3.9" fill="#43391c" opacity=".92"/><circle cx="364" cy="357.5" r="6.3" fill="#43391c" opacity=".9"/><circle cx="362.6" cy="353.9" r="5.8" fill="#43391c" opacity=".89"/><circle cx="367.9" cy="357" r="3.2" fill="#63512a" opacity=".72"/><circle cx="371.9" cy="355.1" r="2.8" fill="#63512a" opacity=".89"/><circle cx="368.3" cy="354" r="2.8" fill="#63512a" opacity=".86"/><circle cx="369.9" cy="362.4" r="3.7" fill="#63512a" opacity=".88"/><circle cx="366.9" cy="348.2" r="2.4" fill="#8a7040" opacity=".89"/><circle cx="361.3" cy="354" r="3.1" fill="#8a7040" opacity=".64"/><circle cx="370" cy="354.3" r="2" fill="#8a7040" opacity=".76"/><circle cx="366" cy="361.2" r="3.3" fill="#8a7040" opacity=".7"/><circle cx="369.8" cy="351.1" r="1.3" fill="#b39159" opacity=".85"/><circle cx="368.1" cy="346.2" r="1.4" fill="#b39159" opacity=".78"/><circle cx="373.3" cy="352" r="1.6" fill="#b39159" opacity=".8"/><circle cx="369" cy="349.7" r="1.1" fill="#dcb87f" opacity=".48"/><circle cx="371.4" cy="350.2" r="1.2" fill="#dcb87f" opacity=".58"/><circle cx="362.1" cy="360.4" r="3.3" fill="#2c2614" opacity=".52"/></g><path d="M 323.5 414.4 h 32 v 33.6 a 6.4 6.4 0 0 1 -6.4 6.4 h -19.2 a 6.4 6.4 0 0 1 -6.4 -6.4 Z" fill="#ffe3a8" opacity=".38"/><g style="mix-blend-mode:screen"><circle cx="519.5" cy="752" r="9" fill="url(#glow)" opacity=".24"/><circle cx="486.8" cy="531.3" r="3.6" fill="url(#glow)" opacity=".43"/><circle cx="66.8" cy="504.7" r="7.6" fill="url(#glow)" opacity=".33"/><circle cx="-64.2" cy="352.4" r="8.7" fill="url(#glow)" opacity=".27"/><circle cx="276.7" cy="694.8" r="6.2" fill="url(#glow)" opacity=".35"/><circle cx="404.4" cy="559.8" r="7.6" fill="url(#glow)" opacity=".37"/><circle cx="177.6" cy="832.3" r="6.4" fill="url(#glow)" opacity=".43"/><circle cx="434.5" cy="338.3" r="5.1" fill="url(#glow)" opacity=".24"/><circle cx="485.1" cy="638.1" r="4.1" fill="url(#glow)" opacity=".45"/><circle cx="245.4" cy="434.4" r="4.9" fill="url(#glow)" opacity=".43"/></g><rect width="800" height="800" fill="url(#vignette)"/><rect width="800" height="800" filter="url(#grain)" opacity=".09" style="mix-blend-mode:overlay"/></svg>
